<svg xmlns="http://www.w3.org/2000/svg" width="520pt" height="520pt" style="fill:#000;background:#fff" viewBox="0 0 520 520">&gt;<path d="M288.5 11.5c-13.6 3-24.7 8.8-33.4 17.3-10.6 10.4-13.3 18.6-15.6 46.8-1.3 17.3-3.1 28-5.4 32.2-2.2 4.1-23.7 23.4-46.6 41.9-13.7 11-29 23.9-33.8 28.5l-8.8 8.3 10.7 14c5.9 7.7 19.2 24.6 29.4 37.5 25.9 32.6 31.5 40.2 35.2 47.7 2.9 5.9 3.2 7.6 3.9 20.1 1 17.2 1.1 64.8.2 89.4l-.6 18.7-7 4.7c-11.3 7.8-31.1 27.5-43.6 43.6-1.1 1.5-.7 2.6 3.9 8.3 2.8 3.6 5.6 6.5 6.1 6.5 1.3 0 19.9-7.1 31.1-11.9 5.3-2.2 9.9-4.1 10.2-4.1.4 0 .6 10.8.6 24v24h29v-20.3c0-11.1.5-28 1-37.6 1.4-22.8 1-22.2 24.2-39.4 6.2-4.6 15.4-12.4 20.5-17.3 7.4-7.2 9.3-9.7 10.3-13.4 2.4-9-3.2-18.7-22.6-39.3-17.6-18.7-23.9-26.2-28.1-33-3.5-5.8-3.5-5.9-4.4-22-1-19.7-1.1-82.4-.2-123.4l.6-30 20.1-.7c25.6-.9 41.6-2.3 48.6-4.2 23.6-6.7 42.1-28.5 44.6-52.5.9-8.7-1.6-21.1-6.2-30.9-6.8-14.5-26.5-30.2-42-33.5-8.5-1.8-23.8-1.8-31.9 0M309 38c11.6 1.9 25.3 7.2 35 13.6l3.7 2.5-.9 5.7c-2.3 14.9-6.8 26.4-13.3 33.9-5.4 6.3-18.6 12.6-27.5 13.1-11.6.7-21.9-3.2-31.3-11.8-11.8-10.8-15.5-25.8-9.3-37.8 6.3-12.2 18.6-19.5 34.1-20.1 1.7 0 5.9.4 9.5.9m-88.2 179.2-.3 18.8-12.1-15.8c-11.6-15-20.4-27.7-20.4-29.3 0-2 9.7-10.8 20-18.3l11.5-8.3.8 17.1c.4 9.4.6 25.5.5 35.8m51.9 153.9c1.3 1.5-1 3.8-15.4 15.2l-2.3 1.8v-38.2l8.2 9.8c4.5 5.4 8.7 10.5 9.5 11.4"/></svg>