<svg height="520pt" preserveAspectRatio="xMidYMid meet" viewBox="0 0 520 520" width="520pt" xmlns="http://www.w3.org/2000/svg"><path d="m2885 5085c-136-30-247-88-334-173-106-104-133-186-156-468-13-173-31-280-54-322-22-41-237-234-466-419-137-110-290-239-338-285l-88-83 107-140c59-77 192-246 294-375 259-326 315-402 352-477 29-59 32-76 39-201 10-172 11-648 2-894l-6-187-70-47c-113-78-311-275-436-436-11-15-7-26 39-83 28-36 56-65 61-65 13 0 199 71 311 119 53 22 99 41 102 41 4 0 6-108 6-240v-240h145 145v203c0 111 5 280 10 376 14 228 10 222 242 394 62 46 154 124 205 173 74 72 93 97 103 134 24 90-32 187-226 393-176 187-239 262-281 330-35 58-35 59-44 220-10 197-11 824-2 1234l6 300 201 7c256 9 416 23 486 42 236 67 421 285 446 525 9 87-16 211-62 309-68 145-265 302-420 335-85 18-238 18-319 0zm205-265c116-19 253-72 350-136l37-25-9-57c-23-149-68-264-133-339-54-63-186-126-275-131-116-7-219 32-313 118-118 108-155 258-93 378 63 122 186 195 341 201 17 0 59-4 95-9zm-882-1792-3-188-121 158c-116 150-204 277-204 293 0 20 97 108 200 183l115 83 8-171c4-94 6-255 5-358zm519-1539c13-15-10-38-154-152l-23-18v191 191l82-98c45-54 87-105 95-114z" transform="matrix(.1 0 0 -.1 0 520)"/></svg>